<svg xmlns="http://www.w3.org/2000/svg" xmlns:xlink="http://www.w3.org/1999/xlink" width="70" height="70" viewBox="0 0 70 70">
  <defs>
    <clipPath id="clip-path">
      <rect id="Rectangle_16" data-name="Rectangle 16" width="58.545" height="58.533" fill="#b6d242"/>
    </clipPath>
    <clipPath id="clip-icon-films">
      <rect width="70" height="70"/>
    </clipPath>
  </defs>
  <g id="icon-films" clip-path="url(#clip-icon-films)">
    <g id="Group_63" data-name="Group 63" transform="translate(5.727 5.733)">
      <g id="Group_6" data-name="Group 6" transform="translate(0 0)" clip-path="url(#clip-path)">
        <path id="Path_13" data-name="Path 13" d="M.053,23.7H58.542l0,26.242a13.1,13.1,0,0,1-9.258,11.427L47,61.881H11.59c-.756-.2-1.531-.3-2.284-.515A13.055,13.055,0,0,1,.594,52.708c-.232-.782-.343-1.586-.541-2.374Zm22.822,7.8a3.425,3.425,0,0,0-3.048,2.9c.3,4.942-.437,10.432-.016,15.31a3.38,3.38,0,0,0,4.571,2.852,11.724,11.724,0,0,0,1.147-.567c4.388-2.166,8.677-4.824,13.035-7.076,2.136-1.643,1.878-4.31-.323-5.765-4.07-2.69-9.269-4.6-13.435-7.247a3.588,3.588,0,0,0-1.931-.4" transform="translate(-0.007 -3.348)" fill="#b6d242"/>
        <path id="Path_14" data-name="Path 14" d="M.045,11.547A13.234,13.234,0,0,1,11.869,0l10,.057L13.754,16.293l-13.71.055c.1-1.548-.141-3.274,0-4.8" transform="translate(0 -0.001)" fill="#b6d242"/>
        <path id="Path_15" data-name="Path 15" d="M45.326,0,37.215,16.348H21.337L29.5,0Z" transform="translate(-3.014 0)" fill="#b6d242"/>
        <path id="Path_16" data-name="Path 16" d="M64.911,16.354H45.148L53.308.045A13.015,13.015,0,0,1,64.646,10.274a32.438,32.438,0,0,1,.265,6.08" transform="translate(-6.378 -0.007)" fill="#b6d242"/>
      </g>
    </g>
  </g>
</svg>
