<svg xmlns="http://www.w3.org/2000/svg" xmlns:xlink="http://www.w3.org/1999/xlink" width="70" height="70" viewBox="0 0 70 70">
  <defs>
    <clipPath id="clip-path">
      <rect id="Rectangle_14" data-name="Rectangle 14" width="65.065" height="47.708" fill="#b6d242"/>
    </clipPath>
    <clipPath id="clip-icon-games">
      <rect width="70" height="70"/>
    </clipPath>
  </defs>
  <g id="icon-games" clip-path="url(#clip-icon-games)">
    <g id="Group_62" data-name="Group 62" transform="translate(2.467 11.146)">
      <g id="Group_2" data-name="Group 2" transform="translate(0 0)" clip-path="url(#clip-path)">
        <path id="Path_1" data-name="Path 1" d="M65,34.805A34.633,34.633,0,0,1,65,39c-.534,4.734-6.64,9.472-11.327,8.607-2.68-.5-5.28-2.842-7.159-4.713-1.97-1.961-6.043-7.469-8.734-7.711-3.423-.307-7.309.231-10.782.016C19.758,38.412,15.473,51.789,5.723,46.433,1.188,43.943-.115,40.5.008,35.5A136.7,136.7,0,0,1,2.613,12.822c1.4-6.866,5.6-11.8,12.838-12.687,4.129-.5,5.684.813,9.248,2.018,3.582,1.212,11.22,1.294,14.853.254C44.688.939,46.195-1.08,52.178.692,61.925,3.579,62.733,13.218,63.837,21.8c.546,4.242,1.02,8.77,1.161,13M20.83,15.748V12.253c0-.042-.156-.729-.188-.828a2.631,2.631,0,0,0-4.786-.465,7.672,7.672,0,0,0-.357.785v4h-4a8.512,8.512,0,0,0-.813.33,2.664,2.664,0,0,0,0,4.554,5.079,5.079,0,0,0,.69.325H15.5v4a4.954,4.954,0,0,0,.581,1.2,2.7,2.7,0,0,0,4.5-.682,10,10,0,0,0,.247-1.023V20.956h4.125a7.883,7.883,0,0,0,.817-.452,2.645,2.645,0,0,0-.076-4.355,7.154,7.154,0,0,0-.868-.4ZM51,9.679c-4.675.732-3.37,8.679,1.816,7.281C57.1,15.806,56.075,8.885,51,9.679M44.657,19.716c-3.762.636-3.686,6.8.108,7.328,6.043.834,5.9-8.345-.108-7.328" transform="translate(0 0)" fill="#b6d242"/>
      </g>
    </g>
  </g>
</svg>
