<svg xmlns="http://www.w3.org/2000/svg" xmlns:xlink="http://www.w3.org/1999/xlink" width="70" height="70" viewBox="0 0 70 70">
  <defs>
    <clipPath id="clip-path">
      <rect id="Rectangle_17" data-name="Rectangle 17" width="68.377" height="68.405" fill="#b6d242"/>
    </clipPath>
    <clipPath id="clip-icon-research">
      <rect width="70" height="70"/>
    </clipPath>
  </defs>
  <g id="icon-research" clip-path="url(#clip-icon-research)">
    <g id="Group_61" data-name="Group 61" transform="translate(0.797 0.797)">
      <g id="Group_8" data-name="Group 8" transform="translate(0 0)" clip-path="url(#clip-path)">
        <path id="Path_17" data-name="Path 17" d="M22.081.1A24.733,24.733,0,0,1,43.743,40.371l4.56,4.545A5.788,5.788,0,0,1,55,45.831c4.156,3.492,7.876,8.383,12,12.011a5.846,5.846,0,0,1,.366,7.069c-2.43,3.331-6.189,4.866-9.686,1.953-4.323-3.6-8.379-8.792-12.509-12.691a5.8,5.8,0,0,1-.261-5.856l-4.544-4.56C26.122,55.33,4.374,47.9.536,29.907-2.472,15.812,7.535,1.29,22.081.1m-1.8,12.665a2.556,2.556,0,0,0-2.047,2.577c.287,4.941-.391,10.325-.008,15.213.294,3.748,4.408,3.485,4.764.876-.359-5.3.523-11.332.021-16.546a2.368,2.368,0,0,0-2.73-2.119M34.838,32.66a2.406,2.406,0,0,0,4.109-1.378c.549-3.982-.371-9.139,0-13.245a2.39,2.39,0,0,0-4.745,0c.309,4.162-.458,9.033-.014,13.11a3,3,0,0,0,.65,1.513m-6.8-13.484A2.368,2.368,0,0,0,26.3,21.015c.24,3.272-.353,7.073-.01,10.28a2.349,2.349,0,0,0,4.58.4c.429-1.385.333-8.066.2-9.8-.138-1.761-1.066-3.125-3.029-2.719M10.98,32.66a2.4,2.4,0,0,0,4.087-1.251,43.472,43.472,0,0,0,0-7.087,2.379,2.379,0,0,0-4.7,0,42.931,42.931,0,0,0-.036,6.825,2.992,2.992,0,0,0,.649,1.513" transform="translate(0 0)" fill="#b6d242"/>
      </g>
    </g>
  </g>
</svg>
