<svg xmlns="http://www.w3.org/2000/svg" xmlns:xlink="http://www.w3.org/1999/xlink" width="50" height="50" viewBox="0 0 50 50">
  <defs>
    <clipPath id="clip-path">
      <rect id="Rectangle_24" data-name="Rectangle 24" width="42.047" height="36.655" fill="none"/>
    </clipPath>
    <clipPath id="clip-icon-work">
      <rect width="50" height="50"/>
    </clipPath>
  </defs>
  <g id="icon-work" clip-path="url(#clip-icon-work)">
    <g id="Group_68" data-name="Group 68" transform="translate(4 7)">
      <g id="Group_25" data-name="Group 25" transform="translate(0 0)" clip-path="url(#clip-path)">
        <path id="Path_33" data-name="Path 33" d="M41.988,13.694c-.32,3.475-2.67,5.22-5.731,6.19-4.47,1.416-9.041,2.54-13.522,3.922a7.813,7.813,0,0,1-3.279.03C14.67,22.184,9.256,21.261,4.55,19.5.7,18.054-.344,14.383.091,10.56c.189-1.665,1.941-3.671,3.7-3.671h9.457V2.912A3.361,3.361,0,0,1,15.69.19c3.2-.022,6.779-.334,9.968-.11,1.413.1,3.148,1.3,3.148,2.832V6.889h9.457c1.686,0,3.532,1.995,3.725,3.608a21.761,21.761,0,0,1,0,3.2M26.1,6.889V3.076a2.118,2.118,0,0,0-.247-.245H16.2a2.118,2.118,0,0,0-.247.245V6.889Z" transform="translate(0 0)" fill="#b5c82b"/>
        <path id="Path_34" data-name="Path 34" d="M42.044,35.642V48.924l-.476,1.45a4.4,4.4,0,0,1-3.655,2.243L4.1,52.612C2.4,52.646.125,50.677.125,48.965V35.642A11.446,11.446,0,0,0,3.1,37.706c4.915,1.433,9.808,3.133,14.776,4.39a10.3,10.3,0,0,0,6.029.1c5.108-1.235,10.125-3.031,15.167-4.489a11.4,11.4,0,0,0,2.974-2.064" transform="translate(-0.056 -15.962)" fill="#b5c82b"/>
      </g>
    </g>
  </g>
</svg>
