<svg xmlns="http://www.w3.org/2000/svg" xmlns:xlink="http://www.w3.org/1999/xlink" width="50" height="50" viewBox="0 0 50 50">
  <defs>
    <clipPath id="clip-path">
      <rect id="Rectangle_23" data-name="Rectangle 23" width="42.544" height="39.1" fill="none"/>
    </clipPath>
    <clipPath id="clip-icon-pc">
      <rect width="50" height="50"/>
    </clipPath>
  </defs>
  <g id="icon-pc" clip-path="url(#clip-icon-pc)">
    <g id="Group_67" data-name="Group 67" transform="translate(4 5)">
      <g id="Group_21" data-name="Group 21" transform="translate(0 0)" clip-path="url(#clip-path)">
        <path id="Path_32" data-name="Path 32" d="M42.544,3.073V28.865a3.925,3.925,0,0,1-1.687,2.5,6.717,6.717,0,0,1-1.18.481H26.59c.075,1.449.4,4.775,2.092,5.252.544.153,1.185-.018,1.394.685.253.85-.387,1.146-1.114,1.2-4.995.362-10.422-.28-15.462,0-.711-.008-1.251-.458-1.031-1.2.213-.717.9-.532,1.455-.707,1.624-.513,1.979-3.8,2.031-5.23H2.867a6.717,6.717,0,0,1-1.18-.481A3.925,3.925,0,0,1,0,28.865V3.073A3.679,3.679,0,0,1,3.533.006L38.85,0a3.717,3.717,0,0,1,3.694,3.072m-3.573.5H3.573V24.8h35.4Zm-17.727,23a1.767,1.767,0,0,0-.308,3.5c2.552.462,2.837-3.545.308-3.5" transform="translate(0 0)" fill="#b5c82b"/>
      </g>
    </g>
  </g>
</svg>
