<svg xmlns="http://www.w3.org/2000/svg" xmlns:xlink="http://www.w3.org/1999/xlink" width="70" height="70" viewBox="0 0 70 70">
  <defs>
    <clipPath id="clip-path">
      <rect id="Rectangle_15" data-name="Rectangle 15" width="66.61" height="66.738" fill="#b6d242"/>
    </clipPath>
    <clipPath id="clip-icon-creativity">
      <rect width="70" height="70"/>
    </clipPath>
  </defs>
  <g id="icon-creativity" clip-path="url(#clip-icon-creativity)">
    <g id="Group_60" data-name="Group 60" transform="translate(1.695 1.631)">
      <g id="Group_4" data-name="Group 4" transform="translate(0 0)" clip-path="url(#clip-path)">
        <path id="Path_2" data-name="Path 2" d="M38.482,0a23.6,23.6,0,0,1,18.5,35.213c-1.507,2.652-3.834,4.693-5.145,7.474a13.088,13.088,0,0,0-1.252,4.278H44.467V29.336c-.9-2.1-1.877-4.174-2.88-6.226a63.236,63.236,0,0,0-3.256-6.371,1.994,1.994,0,0,0-3.339,0,65.144,65.144,0,0,0-3.516,6.891c-.914,1.879-1.812,3.777-2.62,5.706V46.964H22.74c-.29-5.28-4.67-8.328-6.917-12.662C8.177,19.555,18.139,1.324,34.633.121L34.84,0Z" transform="translate(-3.357 0)" fill="#b6d242"/>
        <path id="Path_3" data-name="Path 3" d="M0,34.018v-1.04a2.234,2.234,0,0,1,1.526-1.4,27.388,27.388,0,0,1,4.523-.03,1.962,1.962,0,0,1,0,3.9,27.305,27.305,0,0,1-4.523-.031A2.233,2.233,0,0,1,0,34.018" transform="translate(0 -7.999)" fill="#b6d242"/>
        <path id="Path_4" data-name="Path 4" d="M53.66,68.2v2.667c0,2.728-3.118,4.967-5.653,5.145-5.225.366-10.872-.29-16.142,0-2.422.049-5.524-2.715-5.524-5.143V68.2Z" transform="translate(-6.695 -17.337)" fill="#b6d242"/>
        <path id="Path_5" data-name="Path 5" d="M47.228,43.609v14.44H39.422V43.609a14.044,14.044,0,0,0,7.806,0" transform="translate(-10.021 -11.085)" fill="#b6d242"/>
        <path id="Path_6" data-name="Path 6" d="M50.829,83.9A5.933,5.933,0,0,1,45.7,87.942c-2.018.147-7.8.247-9.566-.2A5.908,5.908,0,0,1,32.1,83.9Z" transform="translate(-8.158 -21.327)" fill="#b6d242"/>
        <path id="Path_7" data-name="Path 7" d="M2.688,13.99a2.248,2.248,0,0,1,1.45.436,31.306,31.306,0,0,1,3.11,3.135,1.97,1.97,0,0,1-2.673,2.8,29.817,29.817,0,0,1-3.27-3.235A2,2,0,0,1,2.688,13.99" transform="translate(-0.243 -3.554)" fill="#b6d242"/>
        <path id="Path_8" data-name="Path 8" d="M83.906,13.982a2,2,0,0,1,1.879,3.059,29.816,29.816,0,0,1-3.235,3.27,1.97,1.97,0,0,1-2.8-2.673,29.514,29.514,0,0,1,3.085-3.16,3.041,3.041,0,0,1,1.075-.5" transform="translate(-20.19 -3.549)" fill="#b6d242"/>
        <path id="Path_9" data-name="Path 9" d="M5.411,45.38A2,2,0,0,1,7.29,48.439a29.817,29.817,0,0,1-3.235,3.27,1.97,1.97,0,0,1-2.8-2.673,29.513,29.513,0,0,1,3.085-3.16,3.041,3.041,0,0,1,1.075-.5" transform="translate(-0.238 -11.53)" fill="#b6d242"/>
        <path id="Path_10" data-name="Path 10" d="M81.183,45.388a2.248,2.248,0,0,1,1.45.436,31.307,31.307,0,0,1,3.11,3.135,1.97,1.97,0,0,1-2.673,2.8,29.816,29.816,0,0,1-3.27-3.235,2,2,0,0,1,1.383-3.138" transform="translate(-20.196 -11.535)" fill="#b6d242"/>
        <path id="Path_11" data-name="Path 11" d="M80.37,31.576a26.749,26.749,0,0,1,4.4-.035,1.964,1.964,0,0,1,.355,3.877,26.749,26.749,0,0,1-4.4.035,1.964,1.964,0,0,1-.355-3.877" transform="translate(-20.041 -7.999)" fill="#b6d242"/>
        <path id="Path_12" data-name="Path 12" d="M43.719,29.654l3.121,6.31a7.884,7.884,0,0,1-6.371.127l2.96-6.27Z" transform="translate(-10.287 -7.538)" fill="#b6d242"/>
      </g>
    </g>
  </g>
</svg>
