<?xml version="1.0" encoding="UTF-8"?>
<svg id="Layer_1" data-name="Layer 1" xmlns="http://www.w3.org/2000/svg" xmlns:xlink="http://www.w3.org/1999/xlink" viewBox="0 0 199.2 63.04">
  <defs>
    <style>
      .cls-1 {
        fill: url(#linear-gradient);
      }
    </style>
    <linearGradient id="linear-gradient" x1="2.67" y1="7.53" x2="50.43" y2="55.3" gradientUnits="userSpaceOnUse">
      <stop offset="0" stop-color="#463492"/>
      <stop offset=".31" stop-color="#1f66ae"/>
      <stop offset=".51" stop-color="#0a83bf"/>
      <stop offset=".76" stop-color="#61ab7f"/>
      <stop offset="1" stop-color="#b6d242"/>
    </linearGradient>
  </defs>
  <path class="cls-1" d="M45.83,59.9c-25.28-23.5-25.28-24.77-25.28-28.17s0-4.66,25.7-28.59l9.54,10.25c-6.9,6.42-14.7,13.92-19.04,18.35,4.27,4.35,11.89,11.66,18.61,17.92l-9.53,10.25ZM17.02,55.86H3.02V7.18h14v48.68Z"/>
  <g>
    <path d="M77.43,19.27l9.33-12.1h9.41l-11.66,13.9,12.71,15.44h-9.85l-9.94-12.71v12.71h-7.61V7.18h7.61v12.1Z"/>
    <path d="M116.56,13.64h-9.06v4.88h8.58v6.47h-8.58v5.06h9.06v6.47h-16.67V7.18h16.67v6.47Z"/>
    <path d="M127.66,7.18l7.04,17.86,7.13-17.86h8.27l-12.49,29.34h-5.94l-12.32-29.34h8.31Z"/>
    <path d="M160.77,7.18v29.34h-7.61V7.18h7.61Z"/>
    <path d="M166.93,36.51V7.18h7.61l14.03,17.95V7.18h7.61v29.34h-7.61l-14.03-17.95v17.95h-7.61Z"/>
  </g>
  <g>
    <path d="M72.63,42.53l3.48,8.76,3.48-8.76h2.78l-5.51,13.04h-1.52l-5.47-13.04h2.78Z"/>
    <path d="M90.79,52.83h-5.26l-1.15,2.74h-2.76l5.61-13.04h1.99l5.45,13.04h-2.74l-1.15-2.74ZM90.05,50.76l-1.86-4.69-1.86,4.69h3.71Z"/>
    <path d="M96.6,55.57v-13.04h1.76l7.94,8.7v-8.7h2.54v13.04h-1.76l-7.94-8.72v8.72h-2.54Z"/>
    <path d="M120.38,42.53c.72,0,2.13,0,3.19.82.76.59,1.21,1.6,1.21,2.7,0,1.68-1.11,2.36-1.47,2.56.86.14,1.37.51,1.7.82.78.74.94,1.76.94,2.44,0,.76-.21,1.84-1.11,2.64-.98.86-2.17,1.06-3.3,1.06h-4.38v-13.04h3.22ZM119.69,47.94h.72c.39,0,1.97-.04,1.97-1.7,0-1.19-.92-1.64-1.95-1.64h-.74v3.34ZM119.69,53.5h1.09c.47,0,1.17-.02,1.74-.35.63-.37.8-1,.8-1.51,0-.41-.14-1.11-.96-1.49-.55-.25-1.19-.25-1.74-.25h-.94v3.6Z"/>
    <path d="M141.98,49.06c0,3.97-2.85,6.8-6.96,6.8s-6.96-2.83-6.96-6.8,2.85-6.82,6.96-6.82,6.96,2.85,6.96,6.82ZM139.36,49.06c0-2.64-1.8-4.52-4.34-4.52s-4.34,1.88-4.34,4.52,1.8,4.5,4.34,4.5,4.34-1.86,4.34-4.5Z"/>
    <path d="M146.48,42.53h1.84l3.46,8.29,3.62-8.29h1.84l2.19,13.04h-2.58l-1.17-8.03-3.5,8.03h-.86l-3.34-8.03-1.33,8.03h-2.58l2.42-13.04Z"/>
    <path d="M163.88,42.53h1.84l3.46,8.29,3.62-8.29h1.84l2.19,13.04h-2.58l-1.17-8.03-3.5,8.03h-.86l-3.34-8.03-1.33,8.03h-2.58l2.42-13.04Z"/>
    <path d="M186.76,44.72h-4.69v2.91h4.5v2.19h-4.5v3.56h4.69v2.19h-7.23v-13.04h7.23v2.19Z"/>
    <path d="M192.15,42.53v10.85h4.03v2.19h-6.57v-13.04h2.54Z"/>
  </g>
</svg>